<?xml version="1.0" encoding="UTF-8" standalone="no"?>
<svg
   xmlns:dc="http://purl.org/dc/elements/1.1/"
   xmlns:cc="http://creativecommons.org/ns#"
   xmlns:rdf="http://www.w3.org/1999/02/22-rdf-syntax-ns#"
   xmlns:svg="http://www.w3.org/2000/svg"
   xmlns="http://www.w3.org/2000/svg"
   xmlns:xlink="http://www.w3.org/1999/xlink"
   id="svg9735"
   version="1.1"
   viewBox="0 0 15.875 15.875"
   height="60"
   width="60">
  <defs
     id="defs9729">
    <linearGradient
       gradientTransform="matrix(0.04851145,0,0,0.04851145,-49.948885,278.2208)"
       gradientUnits="userSpaceOnUse"
       y2="106.35164"
       x2="1298.2155"
       y1="358.75116"
       x1="1100.8389"
       id="linearGradient9119"
       xlink:href="#linearGradient9117" />
    <linearGradient
       id="linearGradient9117">
      <stop
         id="stop9113"
         offset="0"
         style="stop-color:#417cff;stop-opacity:1;" />
      <stop
         id="stop9115"
         offset="1"
         style="stop-color:#ea91e7;stop-opacity:1" />
    </linearGradient>
  </defs>
  <metadata
     id="metadata9732">
    <rdf:RDF>
      <cc:Work
         rdf:about="">
        <dc:format>image/svg+xml</dc:format>
        <dc:type
           rdf:resource="http://purl.org/dc/dcmitype/StillImage" />
        <dc:title></dc:title>
      </cc:Work>
    </rdf:RDF>
  </metadata>
  <g
     transform="translate(0,-281.12498)"
     id="layer1">
    <circle
       r="6.5829206"
       cy="289.06247"
       cx="7.9375"
       id="path9096-3"
       style="opacity:1;fill:#ffffff;fill-opacity:1;stroke:#000000;stroke-width:0.74737084;stroke-linecap:round;stroke-linejoin:round;stroke-miterlimit:4;stroke-dasharray:none;stroke-dashoffset:0;stroke-opacity:1;paint-order:fill markers stroke" />
    <circle
       r="7.5111246"
       cy="289.06247"
       cx="7.9375"
       id="path9096"
       style="opacity:1;fill:none;fill-opacity:1;stroke:url(#linearGradient9119);stroke-width:0.64108539;stroke-linecap:butt;stroke-linejoin:bevel;stroke-miterlimit:4.19999981;stroke-dasharray:15.38604904, 0.64108538;stroke-dashoffset:132.15136719;stroke-opacity:1;paint-order:fill markers stroke" />
    <g
       transform="matrix(0.01550293,0,0,0.01550293,3.9687499,285.57432)"
       id="g9208">
      <path
         d="m 15,450 h 482 c 8.28516,0 15,-6.71484 15,-15 0,-24.38281 0,-394.585938 0,-420 C 512,6.714844 505.28516,0 497,0 H 15 C 6.714844,0 0,6.714844 0,15 v 420 c 0,8.28516 6.714844,15 15,15 z M 30,30 h 452 v 90 H 30 Z m 0,120 H 482 V 420 H 30 Z m 0,0"
         id="path9173" />
      <path
         style="fill:#145dff;fill-opacity:1;stroke:#000000;stroke-width:16.38400078;stroke-linecap:butt;stroke-linejoin:round;stroke-miterlimit:4;stroke-dasharray:none;stroke-opacity:1;paint-order:normal"
         d="m 176.60547,244.39453 c -5.85547,-5.85937 -15.35547,-5.85937 -21.21094,0 l -59.999999,60 c -5.859375,5.85547 -5.859375,15.35156 0,21.21094 l 59.999999,60 c 5.85547,5.85937 15.35156,5.85937 21.21094,0 5.85937,-5.85938 5.85937,-15.35547 0,-21.21094 L 127.21484,315 176.60547,265.60547 c 5.85937,-5.85547 5.85937,-15.35547 0,-21.21094 z m 0,0"
         id="path9175" />
      <path
         style="fill:#145dff;fill-opacity:1;stroke:#000000;stroke-width:16.38400078;stroke-linecap:butt;stroke-linejoin:round;stroke-miterlimit:4;stroke-dasharray:none;stroke-opacity:1;paint-order:normal"
         d="m 292.70703,241.58203 c -7.40625,-3.70312 -16.41797,-0.69922 -20.125,6.70703 l -60,120 c -3.70312,7.41016 -0.69922,16.42188 6.70703,20.125 7.42578,3.71485 16.42969,0.6875 20.125,-6.70703 l 60,-120 c 3.70703,-7.40625 0.70313,-16.41797 -6.70703,-20.125 z m 0,0"
         id="path9177" />
      <path
         style="fill:#145dff;fill-opacity:1;stroke:#000000;stroke-width:16.38400078;stroke-linecap:butt;stroke-linejoin:round;stroke-miterlimit:4;stroke-dasharray:none;stroke-opacity:1;paint-order:normal"
         d="m 356.60547,244.39453 c -5.85547,-5.85937 -15.35547,-5.85937 -21.21094,0 -5.85937,5.85547 -5.85937,15.35156 0,21.21094 L 384.78516,315 335.39453,364.39453 c -5.85937,5.85547 -5.85937,15.35156 0,21.21094 5.85547,5.85937 15.35547,5.85937 21.21094,0 l 60,-60 c 5.85937,-5.85938 5.85937,-15.35547 0,-21.21094 z m 0,0"
         id="path9179" />
      <path
         style="fill:#d836d3;fill-opacity:1;stroke:#000000;stroke-width:16.38400078;stroke-linecap:butt;stroke-linejoin:round;stroke-miterlimit:4;stroke-dasharray:none;stroke-opacity:1;paint-order:normal"
         d="M 436,180 H 76 c -8.285156,0 -15,6.71484 -15,15 0,8.28516 6.714844,15 15,15 h 360 c 8.28516,0 15,-6.71484 15,-15 0,-8.28516 -6.71484,-15 -15,-15 z m 0,0"
         id="path9181" />
      <path
         d="m 331,75 c 0,8.285156 -6.71484,15 -15,15 -8.28516,0 -15,-6.714844 -15,-15 0,-8.285156 6.71484,-15 15,-15 8.28516,0 15,6.714844 15,15 z m 0,0"
         id="path9183" />
      <path
         d="m 391,75 c 0,8.285156 -6.71484,15 -15,15 -8.28516,0 -15,-6.714844 -15,-15 0,-8.285156 6.71484,-15 15,-15 8.28516,0 15,6.714844 15,15 z m 0,0"
         id="path9185" />
      <path
         d="m 451,75 c 0,8.285156 -6.71484,15 -15,15 -8.28516,0 -15,-6.714844 -15,-15 0,-8.285156 6.71484,-15 15,-15 8.28516,0 15,6.714844 15,15 z m 0,0"
         id="path9187" />
      <path
         d="M 226,60 H 76 c -8.285156,0 -15,6.714844 -15,15 0,8.285156 6.714844,15 15,15 h 150 c 8.28516,0 15,-6.714844 15,-15 0,-8.285156 -6.71484,-15 -15,-15 z m 0,0"
         id="path9189" />
    </g>
  </g>
</svg>
