<?xml version="1.0" encoding="UTF-8" standalone="no"?>
<svg
   xmlns:dc="http://purl.org/dc/elements/1.1/"
   xmlns:cc="http://creativecommons.org/ns#"
   xmlns:rdf="http://www.w3.org/1999/02/22-rdf-syntax-ns#"
   xmlns:svg="http://www.w3.org/2000/svg"
   xmlns="http://www.w3.org/2000/svg"
   xmlns:xlink="http://www.w3.org/1999/xlink"
   id="svg9735"
   version="1.1"
   viewBox="0 0 15.875 15.875"
   height="60"
   width="60">
  <defs
     id="defs9729">
    <linearGradient
       gradientTransform="matrix(0.04851145,0,0,0.04851145,-49.948885,278.2208)"
       gradientUnits="userSpaceOnUse"
       y2="106.35164"
       x2="1298.2155"
       y1="358.75116"
       x1="1100.8389"
       id="linearGradient9119"
       xlink:href="#linearGradient9117" />
    <linearGradient
       id="linearGradient9117">
      <stop
         id="stop9113"
         offset="0"
         style="stop-color:#417cff;stop-opacity:1;" />
      <stop
         id="stop9115"
         offset="1"
         style="stop-color:#ea91e7;stop-opacity:1" />
    </linearGradient>
  </defs>
  <metadata
     id="metadata9732">
    <rdf:RDF>
      <cc:Work
         rdf:about="">
        <dc:format>image/svg+xml</dc:format>
        <dc:type
           rdf:resource="http://purl.org/dc/dcmitype/StillImage" />
        <dc:title></dc:title>
      </cc:Work>
    </rdf:RDF>
  </metadata>
  <g
     transform="translate(0,-281.12498)"
     id="layer1">
    <circle
       r="6.5829206"
       cy="289.06247"
       cx="7.9375"
       id="path9096-3"
       style="opacity:1;fill:#ffffff;fill-opacity:1;stroke:#000000;stroke-width:0.74737084;stroke-linecap:round;stroke-linejoin:round;stroke-miterlimit:4;stroke-dasharray:none;stroke-dashoffset:0;stroke-opacity:1;paint-order:fill markers stroke" />
    <circle
       r="7.5111246"
       cy="289.06247"
       cx="7.9375"
       id="path9096"
       style="opacity:1;fill:none;fill-opacity:1;stroke:url(#linearGradient9119);stroke-width:0.64108539;stroke-linecap:butt;stroke-linejoin:bevel;stroke-miterlimit:4.19999981;stroke-dasharray:15.38604904, 0.64108538;stroke-dashoffset:132.15136719;stroke-opacity:1;paint-order:fill markers stroke" />
    <g
       transform="matrix(0.29622448,0,0,0.29622448,60.849576,306.95242)"
       id="g9154">
      <rect
         style="opacity:1;fill:#d836d3;fill-opacity:1;stroke:none;stroke-width:0.80925369;stroke-linecap:butt;stroke-linejoin:miter;stroke-miterlimit:4;stroke-dasharray:none;stroke-dashoffset:0;stroke-opacity:1;paint-order:normal"
         id="rect8966"
         width="13.108795"
         height="2.5029366"
         x="-182.72433"
         y="-61.239098" />
      <rect
         style="opacity:1;fill:#145dff;fill-opacity:1;stroke:none;stroke-width:0.85879803;stroke-linecap:butt;stroke-linejoin:miter;stroke-miterlimit:4;stroke-dasharray:none;stroke-dashoffset:0;stroke-opacity:1;paint-order:normal"
         id="rect8935-40"
         width="4.0532246"
         height="6.4358635"
         x="-173.66878"
         y="-58.736164" />
      <rect
         style="opacity:1;fill:#145dff;fill-opacity:1;stroke:none;stroke-width:0.81041157;stroke-linecap:butt;stroke-linejoin:miter;stroke-miterlimit:4;stroke-dasharray:none;stroke-dashoffset:0;stroke-opacity:1;paint-order:normal"
         id="rect8935-4"
         width="3.824858"
         height="6.0732536"
         x="-178.17444"
         y="-58.515556" />
      <rect
         style="opacity:1;fill:#145dff;fill-opacity:1;stroke:none;stroke-width:0.73783195;stroke-linecap:butt;stroke-linejoin:miter;stroke-miterlimit:4;stroke-dasharray:none;stroke-dashoffset:0;stroke-opacity:1;paint-order:normal"
         id="rect8935-8"
         width="3.4823074"
         height="5.5293393"
         x="-182.54669"
         y="-58.038105" />
      <rect
         style="opacity:1;fill:#145dff;fill-opacity:1;stroke:none;stroke-width:1.19750297;stroke-linecap:butt;stroke-linejoin:miter;stroke-miterlimit:4;stroke-dasharray:none;stroke-dashoffset:0;stroke-opacity:1;paint-order:normal"
         id="rect8935"
         width="5.6517935"
         height="8.9741306"
         x="-188.19849"
         y="-62.302082" />
      <g
         id="g8933"
         transform="matrix(0.05233507,0,0,0.05233507,-192.01933,-72.168572)">
        <path
           id="path8907"
           d="m 15,450 h 482 c 8.28516,0 15,-6.71484 15,-15 0,-24.38281 0,-394.585938 0,-420 C 512,6.714844 505.28516,0 497,0 H 15 C 6.714844,0 0,6.714844 0,15 v 420 c 0,8.28516 6.714844,15 15,15 z M 30,30 h 452 v 90 H 30 Z m 0,120 H 482 V 420 H 30 Z m 0,0" />
        <path
           id="path8909"
           d="m 331.74219,75 c 0,8.285156 -6.71485,15 -15,15 -8.28516,0 -15,-6.714844 -15,-15 0,-8.285156 6.71484,-15 15,-15 8.28515,0 15,6.714844 15,15 z m 0,0" />
        <path
           id="path8911"
           d="m 391.74219,75 c 0,8.285156 -6.71485,15 -15,15 -8.28516,0 -15,-6.714844 -15,-15 0,-8.285156 6.71484,-15 15,-15 8.28515,0 15,6.714844 15,15 z m 0,0" />
        <path
           id="path8913"
           d="m 451.74219,75 c 0,8.285156 -6.71485,15 -15,15 -8.28516,0 -15,-6.714844 -15,-15 0,-8.285156 6.71484,-15 15,-15 8.28515,0 15,6.714844 15,15 z m 0,0" />
        <path
           id="path8915"
           d="m 436,180 c -8.68359,0 -330.53125,0 -360,0 -8.285156,0 -15,6.71484 -15,15 v 180 c 0,8.28516 6.714844,15 15,15 h 360 c 8.28516,0 15,-6.71484 15,-15 0,-9.89063 0,-169.37109 0,-180 0,-8.28516 -6.71484,-15 -15,-15 z M 151,360 H 91 V 210 h 60 z m 90,0 h -60 v -90 h 60 z m 90,0 h -60 v -90 h 60 z m 90,0 h -60 v -90 h 60 z m 0,-120 H 181 v -30 h 240 z m 0,0" />
        <path
           id="path8917"
           d="M 226,60 H 76 c -8.285156,0 -15,6.714844 -15,15 0,8.285156 6.714844,15 15,15 h 150 c 8.28516,0 15,-6.714844 15,-15 0,-8.285156 -6.71484,-15 -15,-15 z m 0,0" />
      </g>
    </g>
  </g>
</svg>
