<?xml version="1.0" encoding="UTF-8" standalone="no"?>
<svg
   xmlns:dc="http://purl.org/dc/elements/1.1/"
   xmlns:cc="http://creativecommons.org/ns#"
   xmlns:rdf="http://www.w3.org/1999/02/22-rdf-syntax-ns#"
   xmlns:svg="http://www.w3.org/2000/svg"
   xmlns="http://www.w3.org/2000/svg"
   xmlns:xlink="http://www.w3.org/1999/xlink"
   id="svg9735"
   version="1.1"
   viewBox="0 0 15.875 15.875"
   height="60"
   width="60">
  <defs
     id="defs9729">
    <linearGradient
       gradientTransform="matrix(0.04851145,0,0,0.04851145,-49.948885,278.2208)"
       gradientUnits="userSpaceOnUse"
       y2="106.35164"
       x2="1298.2155"
       y1="358.75116"
       x1="1100.8389"
       id="linearGradient9119"
       xlink:href="#linearGradient9117" />
    <linearGradient
       id="linearGradient9117">
      <stop
         id="stop9113"
         offset="0"
         style="stop-color:#417cff;stop-opacity:1;" />
      <stop
         id="stop9115"
         offset="1"
         style="stop-color:#ea91e7;stop-opacity:1" />
    </linearGradient>
  </defs>
  <metadata
     id="metadata9732">
    <rdf:RDF>
      <cc:Work
         rdf:about="">
        <dc:format>image/svg+xml</dc:format>
        <dc:type
           rdf:resource="http://purl.org/dc/dcmitype/StillImage" />
        <dc:title></dc:title>
      </cc:Work>
    </rdf:RDF>
  </metadata>
  <g
     transform="translate(0,-281.12498)"
     id="layer1">
    <circle
       r="6.5829206"
       cy="289.06247"
       cx="7.9375"
       id="path9096-3"
       style="opacity:1;fill:#ffffff;fill-opacity:1;stroke:#000000;stroke-width:0.74737084;stroke-linecap:round;stroke-linejoin:round;stroke-miterlimit:4;stroke-dasharray:none;stroke-dashoffset:0;stroke-opacity:1;paint-order:fill markers stroke" />
    <circle
       r="7.5111246"
       cy="289.06247"
       cx="7.9375"
       id="path9096"
       style="opacity:1;fill:none;fill-opacity:1;stroke:url(#linearGradient9119);stroke-width:0.64108539;stroke-linecap:butt;stroke-linejoin:bevel;stroke-miterlimit:4.19999981;stroke-dasharray:15.38604904, 0.64108538;stroke-dashoffset:132.15136719;stroke-opacity:1;paint-order:fill markers stroke" />
    <g
       transform="matrix(0.01550293,0,0,0.01550293,3.9687499,285.28881)"
       id="g9131"
       style="opacity:0.98000004">
      <path
         style="fill:#145dff;fill-opacity:1;stroke:none;stroke-width:5.4540391px;stroke-linecap:butt;stroke-linejoin:miter;stroke-opacity:1"
         d="m 308.68862,292.28438 c 0,0 92.03517,1.39448 101.79648,1.39448 9.76131,0 58.56782,2.78894 58.56782,2.78894 0,0 26.495,37.65076 27.88947,46.0176 1.39447,8.36683 -2.78894,59.96231 -9.76131,65.5402 -6.97236,5.5779 -35.18104,41.46659 -35.18104,41.46659 l -8.04759,-16.36608 -11.15581,43.22865 -58.56781,-43.22865 -156.18094,1.39447 -44.62315,-32.07287 -6.97234,-72.51257 26.49496,-32.07287 44.62315,-6.97236 z"
         id="path9064" />
      <path
         id="path9023"
         d="m 90,75 c 0,8.285156 -6.714844,15 -15,15 -8.285156,0 -15,-6.714844 -15,-15 0,-8.285156 6.714844,-15 15,-15 8.285156,0 15,6.714844 15,15 z m 0,0"
         style="fill:#d836d3;fill-opacity:1;stroke:#000000;stroke-width:16.38400078;stroke-miterlimit:4;stroke-dasharray:none;stroke-opacity:1;paint-order:fill markers stroke" />
      <path
         id="path9025"
         d="m 90,135 c 0,8.28516 -6.714844,15 -15,15 -8.285156,0 -15,-6.71484 -15,-15 0,-8.28516 6.714844,-15 15,-15 8.285156,0 15,6.71484 15,15 z m 0,0"
         style="fill:#d836d3;fill-opacity:1;stroke:#000000;stroke-width:16.38400078;stroke-miterlimit:4;stroke-dasharray:none;stroke-opacity:1;paint-order:fill markers stroke" />
      <path
         id="path9027"
         d="m 240,346 c 0,8.28516 -6.71484,15 -15,15 -8.28516,0 -15,-6.71484 -15,-15 0,-8.28516 6.71484,-15 15,-15 8.28516,0 15,6.71484 15,15 z m 0,0" />
      <path
         id="path9029"
         d="m 300,346 c 0,8.28516 -6.71484,15 -15,15 -8.28516,0 -15,-6.71484 -15,-15 0,-8.28516 6.71484,-15 15,-15 8.28516,0 15,6.71484 15,15 z m 0,0" />
      <path
         id="path9031"
         d="m 360,346 c 0,8.28516 -6.71484,15 -15,15 -8.28516,0 -15,-6.71484 -15,-15 0,-8.28516 6.71484,-15 15,-15 8.28516,0 15,6.71484 15,15 z m 0,0" />
      <path
         id="path9033"
         d="M 437,0 H 75 C 33.644531,0 0,33.644531 0,75 v 90 c 0,36.21875 25.808594,66.52344 60,73.49219 V 316 c 0,6.08203 3.671875,11.5625 9.296875,13.875 5.605469,2.30078 12.074219,1.01562 16.367187,-3.32813 L 171.26172,240 H 437 c 41.35547,0 75,-33.64453 75,-75 V 75 C 512,33.644531 478.35547,0 437,0 Z m 45,165 c 0,24.8125 -20.1875,45 -45,45 H 165 c -4.00781,0 -7.84766,1.60156 -10.66406,4.45312 L 90,279.50391 V 225 C 90,216.71484 83.285156,210 75,210 50.1875,210 30,189.8125 30,165 V 75 C 30,50.1875 50.1875,30 75,30 h 362 c 24.8125,0 45,20.1875 45,45 z m 0,0" />
      <path
         id="path9035"
         d="M 437,271 H 225 c -41.35547,0 -75,33.64453 -75,75 v 30 c 0,41.35547 33.64453,75 75,75 h 144.78906 l 56.60547,56.60547 c 4.29688,4.30078 10.75,5.57031 16.34766,3.2539 C 448.34375,508.53516 452,503.06641 452,497 V 449.49219 C 486.19141,442.52344 512,412.21875 512,376 v -30 c 0,-41.35547 -33.64453,-75 -75,-75 z m 45,105 c 0,24.8125 -20.1875,45 -45,45 -8.28516,0 -15,6.71484 -15,15 v 24.78516 L 386.60547,425.39453 C 383.79297,422.57813 379.98047,421 376,421 H 225 c -24.8125,0 -45,-20.1875 -45,-45 v -30 c 0,-24.8125 20.1875,-45 45,-45 h 212 c 24.8125,0 45,20.1875 45,45 z m 0,0" />
      <path
         id="path9037"
         d="M 437,60 H 135 c -8.28516,0 -15,6.714844 -15,15 0,8.285156 6.71484,15 15,15 h 302 c 8.28516,0 15,-6.714844 15,-15 0,-8.285156 -6.71484,-15 -15,-15 z m 0,0"
         style="fill:#d836d3;fill-opacity:1;stroke:#000000;stroke-width:16.38400078;stroke-miterlimit:4;stroke-dasharray:none;stroke-opacity:1;paint-order:fill markers stroke" />
      <path
         id="path9039"
         d="M 437,120 H 135 c -8.28516,0 -15,6.71484 -15,15 0,8.28516 6.71484,15 15,15 h 302 c 8.28516,0 15,-6.71484 15,-15 0,-8.28516 -6.71484,-15 -15,-15 z m 0,0"
         style="fill:#d836d3;fill-opacity:1;stroke:#000000;stroke-width:16.38400078;stroke-miterlimit:4;stroke-dasharray:none;stroke-opacity:1;paint-order:fill markers stroke" />
    </g>
  </g>
</svg>
