<?xml version="1.0" encoding="UTF-8" standalone="no"?>
<svg
   xmlns:dc="http://purl.org/dc/elements/1.1/"
   xmlns:cc="http://creativecommons.org/ns#"
   xmlns:rdf="http://www.w3.org/1999/02/22-rdf-syntax-ns#"
   xmlns:svg="http://www.w3.org/2000/svg"
   xmlns="http://www.w3.org/2000/svg"
   width="400"
   height="400"
   viewBox="0 0 105.83333 105.83334"
   version="1.1"
   id="svg11108">
  <defs
     id="defs11102" />
  <metadata
     id="metadata11105">
    <rdf:RDF>
      <cc:Work
         rdf:about="">
        <dc:format>image/svg+xml</dc:format>
        <dc:type
           rdf:resource="http://purl.org/dc/dcmitype/StillImage" />
        <dc:title></dc:title>
      </cc:Work>
    </rdf:RDF>
  </metadata>
  <g
     id="layer1"
     transform="translate(-63.145625,-65.117346)">
    <g
       id="g3553"
       transform="matrix(0.61548804,0,0,0.61548804,-137.7921,148.56778)">
      <path
         d="m 389.53,-112.448 11.457,6.615 -26.458,41.734 -11.457,-6.6146 26.458,-41.7344"
         id="path3423"
         style="fill:#de00e8;fill-opacity:1;stroke:none;stroke-width:0.529167;stroke-opacity:0.6" />
      <path
         d="m 363.072,-70.7136 11.457,6.6146 v 26.4581 l -11.456,-6.6146 -10e-4,-26.4581"
         id="path3425"
         style="fill:#de00e8;fill-opacity:1;stroke:none;stroke-width:0.529167;stroke-opacity:0.6" />
      <path
         d="m 363.073,-44.2555 11.456,6.6146 34.37,-19.8436 -11.456,-6.6145 -34.37,19.8435"
         id="path3427"
         style="fill:#de00e8;fill-opacity:1;stroke:none;stroke-width:0.529167;stroke-opacity:0.6" />
      <path
         d="m 397.443,-64.099 11.456,6.6145 v -26.4583 l -11.456,-6.6146 v 26.4584"
         id="path3429"
         style="fill:#de00e8;fill-opacity:1;stroke:none;stroke-width:0.529167;stroke-opacity:0.6" />
      <path
         d="m 397.443,-90.5574 11.456,6.6146 9.274,-14.6273 -11.457,-6.6149 -9.273,14.6276"
         id="path3431"
         style="fill:#de00e8;fill-opacity:1;stroke:none;stroke-width:0.529167;stroke-opacity:0.6" />
      <path
         d="m 406.716,-105.185 11.457,6.6149 9.273,3.9194 -11.457,-6.6143 -9.273,-3.92"
         id="path3433"
         style="fill:#de00e8;fill-opacity:1;stroke:none;stroke-width:0.529167;stroke-opacity:0.6" />
      <path
         d="m 415.989,-101.265 11.457,6.6143 v 26.4583 l -11.457,-6.6146 v -26.458"
         id="path3435"
         style="fill:#cc00d5;fill-opacity:1;stroke:none;stroke-width:0.529167;stroke-opacity:0.6" />
      <path
         d="m 415.989,-74.807 11.457,6.6146 -26.458,41.7341 -11.457,-6.6146 26.458,-41.7341"
         id="path3437"
         style="fill:#cc00d5;fill-opacity:1;stroke:none;stroke-width:0.529167;stroke-opacity:0.6" />
      <path
         d="M 389.531,-6.61459 400.988,2.49997e-6 435.358,-19.8435 l -11.457,-6.6146 -34.37,19.84351"
         id="path3441"
         style="fill:#de00e8;fill-opacity:1;stroke:none;stroke-width:0.529167;stroke-opacity:0.6" />
      <path
         d="m 423.901,-19.8435 11.457,6.6146 L 400.988,6.61459 389.531,0 l 34.37,-19.8435"
         id="path3461"
         style="fill:#b500bd;fill-opacity:1;stroke:none;stroke-width:0.529167;stroke-opacity:0.6" />
      <path
         d="m 389.531,-33.0729 11.457,6.6146 V 2.49997e-6 L 389.531,-6.61459 V -33.0729"
         id="path3439"
         style="fill:#cc00d5;fill-opacity:1;stroke:none;stroke-width:0.529167;stroke-opacity:0.6" />
      <path
         d="m 423.901,-26.4581 11.457,6.6146 v -26.4583 l -11.457,-6.6146 v 26.4583"
         id="path3443"
         style="fill:#de00e8;fill-opacity:1;stroke:none;stroke-width:0.529167;stroke-opacity:0.6" />
      <path
         d="m 423.901,-52.9164 11.457,6.6146 26.458,-41.7341 -11.457,-6.6146 -26.458,41.7341"
         id="path3445"
         style="fill:#de00e8;fill-opacity:1;stroke:none;stroke-width:0.529167;stroke-opacity:0.6" />
      <path
         d="m 450.359,-94.6505 11.457,6.6146 v -26.4581 l -11.457,-6.615 v 26.4585"
         id="path3447"
         style="fill:#de00e8;fill-opacity:1;stroke:none;stroke-width:0.529167;stroke-opacity:0.6" />
      <path
         d="m 450.359,-121.109 11.457,6.615 -26.458,-11.183 -11.457,-6.614 26.458,11.182"
         id="path3449"
         style="fill:#de00e8;fill-opacity:1;stroke:none;stroke-width:0.529167;stroke-opacity:0.6" />
      <path
         d="m 423.901,-132.291 11.457,6.614 -34.371,19.844 -11.457,-6.615 34.371,-19.843"
         id="path3451"
         style="fill:#de00e8;fill-opacity:1;stroke:none;stroke-width:0.529167;stroke-opacity:0.6" />
      <path
         d="m 389.53,-112.448 11.457,6.615 v 0 l -11.457,-6.615 v 0"
         id="path3453"
         style="fill:#de00e8;fill-opacity:1;stroke:none;stroke-width:0.529167;stroke-opacity:0.6" />
      <path
         d="m 389.531,0 11.457,6.61459 V 33.0729 L 389.531,26.4583 V 0"
         id="path3455"
         style="fill:#cc00d5;fill-opacity:1;stroke:none;stroke-width:0.529167;stroke-opacity:0.6" />
      <path
         d="m 389.531,26.4583 11.457,6.6146 34.37,-19.8435 -11.457,-6.61459 -34.37,19.84349"
         id="path3457"
         style="fill:#cc00d5;fill-opacity:1;stroke:none;stroke-width:0.529167;stroke-opacity:0.6" />
      <path
         d="m 423.901,6.61481 11.457,6.61459 v -26.4583 l -11.457,-6.6146 V 6.61481"
         id="path3459"
         style="fill:#b500bd;fill-opacity:1;stroke:none;stroke-width:0.529167;stroke-opacity:0.6" />
      <path
         d="m 389.531,0 11.457,6.61459 v 0 L 389.531,0 v 0"
         id="path3463"
         style="fill:#de00e8;fill-opacity:1;stroke:none;stroke-width:0.529167;stroke-opacity:0.6" />
      <path
         id="path2357"
         style="fill:#6834d0;fill-opacity:1;stroke:none;stroke-width:0.264583px;stroke-linecap:butt;stroke-linejoin:miter;stroke-opacity:1"
         d="m 400.98728,-105.83304 -26.45833,41.734071 5.3e-4,26.458027 34.36998,-19.843517 v -26.458333 l 9.27333,-14.627292 9.27335,3.919362 v 26.458333 l -26.45833,41.734057 V 2.4999719e-6 L 435.35779,-19.843515 v -26.458334 l 26.45834,-41.734063 v -26.458338 l -26.45834,-11.18261 z m 5.3e-4,112.447625 V 33.072917 L 435.35779,13.2294 v -26.458333 z" />
    </g>
  </g>
</svg>
