<?xml version="1.0" encoding="UTF-8" standalone="no"?>
<svg
   xmlns:dc="http://purl.org/dc/elements/1.1/"
   xmlns:cc="http://creativecommons.org/ns#"
   xmlns:rdf="http://www.w3.org/1999/02/22-rdf-syntax-ns#"
   xmlns:svg="http://www.w3.org/2000/svg"
   xmlns="http://www.w3.org/2000/svg"
   width="400"
   height="400"
   viewBox="0 0 105.83333 105.83334"
   version="1.1"
   id="svg11108">
  <defs
     id="defs11102" />
  <metadata
     id="metadata11105">
    <rdf:RDF>
      <cc:Work
         rdf:about="">
        <dc:format>image/svg+xml</dc:format>
        <dc:type
           rdf:resource="http://purl.org/dc/dcmitype/StillImage" />
        <dc:title></dc:title>
      </cc:Work>
    </rdf:RDF>
  </metadata>
  <g
     id="layer1"
     transform="translate(-63.145625,-65.117346)">
    <g
       id="g2067"
       transform="matrix(0.31794071,0,0,0.31794071,104.04489,37.277072)">
      <path
         d="m -2.859451,111.6174 24.03,-12.8909 v 26.1232 l -24.03,12.8912 v -26.1235"
         id="path2931-47"
         style="fill:#de00e8;fill-opacity:1;stroke:none;stroke-width:0.529167;stroke-opacity:0.6" />
      <path
         d="m -2.859451,137.7409 24.03,-12.8912 -26.178,-4.2709 -24.029999,12.8911 26.177999,4.271"
         id="path2933-2"
         style="fill:#cc00d5;fill-opacity:1;stroke:none;stroke-width:0.529167;stroke-opacity:0.6" />
      <path
         d="m -29.03745,133.4699 24.029999,-12.8911 -18.472,-29.1363 -24.029001,12.891 18.471002,29.1364"
         id="path2935-7"
         style="fill:#de00e8;fill-opacity:1;stroke:none;stroke-width:0.529167;stroke-opacity:0.6" />
      <path
         d="m -47.508452,104.3335 24.029001,-12.891 -40.504999,17.12 -24.030001,12.8912 40.505999,-17.1202"
         id="path2937-2"
         style="fill:#de00e8;fill-opacity:1;stroke:none;stroke-width:0.529167;stroke-opacity:0.6" />
      <path
         d="m -88.014451,121.4537 24.030001,-12.8912 18.471999,29.1364 -24.030001,12.8912 -18.471999,-29.1364"
         id="path2939-9"
         style="fill:#de00e8;fill-opacity:1;stroke:none;stroke-width:0.529167;stroke-opacity:0.6" />
      <path
         d="m -69.542452,150.5901 24.030001,-12.8912 -10.844001,19.9169 -24.029999,12.8912 10.843999,-19.9169"
         id="path2941-23"
         style="fill:#de00e8;fill-opacity:1;stroke:none;stroke-width:0.529167;stroke-opacity:0.6" />
      <path
         d="m -80.386451,170.507 24.029999,-12.8912 -26.122999,-15.0821 -24.028999,12.8912 26.121999,15.0821"
         id="path2943-5"
         style="fill:#cc00d5;fill-opacity:1;stroke:none;stroke-width:0.529167;stroke-opacity:0.6" />
      <path
         d="m -106.50845,155.4249 24.028999,-12.8912 v 57.28435 l -24.028999,12.89116 V 155.4249"
         id="path2945-60"
         style="fill:#cc00d5;fill-opacity:1;stroke:none;stroke-width:0.529167;stroke-opacity:0.6" />
      <path
         d="m -106.50845,212.70921 24.028999,-12.89116 26.122999,15.08205 -24.029999,12.8912 -26.121999,-15.08209"
         id="path2947-30"
         style="fill:#de00e8;fill-opacity:1;stroke:none;stroke-width:0.529167;stroke-opacity:0.6" />
      <path
         d="m -80.386451,227.7913 24.029999,-12.8912 10.844001,32.4376 -24.030001,12.8912 -10.843999,-32.4376"
         id="path2949-43"
         style="fill:#de00e8;fill-opacity:1;stroke:none;stroke-width:0.529167;stroke-opacity:0.6" />
      <path
         d="m -69.542452,260.2289 24.030001,-12.8912 -18.471999,7.8071 -24.030001,12.8912 18.471999,-7.8071"
         id="path2951-67"
         style="fill:#de00e8;fill-opacity:1;stroke:none;stroke-width:0.529167;stroke-opacity:0.6" />
      <path
         d="m -88.014451,268.036 24.030001,-12.8912 40.505999,63.8927 -24.030001,12.891 -40.505999,-63.8925"
         id="path2953-8"
         style="fill:#cc00d5;fill-opacity:1;stroke:none;stroke-width:0.529167;stroke-opacity:0.6" />
      <path
         d="m -47.508452,331.9285 24.030001,-12.891 18.472,-7.808 -24.029999,12.892 -18.472002,7.807"
         id="path2955-7"
         style="fill:#de00e8;fill-opacity:1;stroke:none;stroke-width:0.529167;stroke-opacity:0.6" />
      <path
         d="m -29.03645,324.1215 24.029999,-12.892 26.177,25.957 -24.03,12.891 -26.176999,-25.956"
         id="path2957-06"
         style="fill:#de00e8;fill-opacity:1;stroke:none;stroke-width:0.529167;stroke-opacity:0.6" />
      <path
         d="m -2.859451,350.0775 24.03,-12.891 v 26.12299 l -24.03,12.89101 v -26.123"
         id="path2959-0"
         style="fill:#de00e8;fill-opacity:1;stroke:none;stroke-width:0.529167;stroke-opacity:0.6" />
      <path
         d="m -2.859451,376.2005 24.03,-12.89101 57.2836,33.073 -24.0296,12.891 -57.284,-33.07299"
         id="path2961-32"
         style="fill:#de00e8;fill-opacity:1;stroke:none;stroke-width:0.529167;stroke-opacity:0.6" />
      <path
         d="m 54.424549,409.27349 24.0296,-12.891 v -26.12398 l -24.0296,12.89198 v 26.123"
         id="path2963-1"
         style="fill:#cc00d5;fill-opacity:1;stroke:none;stroke-width:0.529167;stroke-opacity:0.6" />
      <path
         d="m 54.424549,383.15049 24.0296,-12.89198 26.177801,4.27099 -24.029801,12.892 -26.1776,-4.27101"
         id="path2965-0"
         style="fill:#de00e8;fill-opacity:1;stroke:none;stroke-width:0.529167;stroke-opacity:0.6" />
      <path
         d="m 80.602149,387.4215 24.029801,-12.892 18.4717,29.137 -24.029801,12.891 -18.4717,-29.136"
         id="path2967-1"
         style="fill:#de00e8;fill-opacity:1;stroke:none;stroke-width:0.529167;stroke-opacity:0.6" />
      <path
         d="m 99.073849,416.5575 24.029801,-12.891 40.50608,-17.12 -24.02978,12.89201 -40.506101,17.11899"
         id="path2969-3"
         style="fill:#de00e8;fill-opacity:1;stroke:none;stroke-width:0.529167;stroke-opacity:0.6" />
      <path
         d="m 139.57995,399.43851 24.02978,-12.89201 -18.47228,-29.137 -24.0298,12.891 18.4723,29.13801"
         id="path2971-26"
         style="fill:#de00e8;fill-opacity:1;stroke:none;stroke-width:0.529167;stroke-opacity:0.6" />
      <path
         d="m 121.10765,370.3005 24.0298,-12.891 10.84328,-19.917 -24.02978,12.892 -10.8433,19.916"
         id="path2973-28"
         style="fill:#cc00d5;fill-opacity:1;stroke:none;stroke-width:0.529167;stroke-opacity:0.6" />
      <path
         d="m 131.95095,350.3845 24.02978,-12.892 26.12343,15.083 -24.02976,12.89101 -26.12345,-15.08201"
         id="path2975-0"
         style="fill:#de00e8;fill-opacity:1;stroke:none;stroke-width:0.529167;stroke-opacity:0.6" />
      <path
         d="m 158.0744,365.46651 24.02976,-12.89101 v -57.2846 l -24.02976,12.8916 v 57.28401"
         id="path2977-9"
         style="fill:#de00e8;fill-opacity:1;stroke:none;stroke-width:0.529167;stroke-opacity:0.6" />
      <path
         d="m 158.0744,308.1825 24.02976,-12.8916 -26.12343,-15.0823 -24.02978,12.8911 26.12345,15.0828"
         id="path2979-1"
         style="fill:#de00e8;fill-opacity:1;stroke:none;stroke-width:0.529167;stroke-opacity:0.6" />
      <path
         d="m 131.95095,293.0997 24.02978,-12.8911 -10.84278,-32.4368 -24.0298,12.8912 10.8428,32.4367"
         id="path2981-2"
         style="fill:#cc00d5;fill-opacity:1;stroke:none;stroke-width:0.529167;stroke-opacity:0.6" />
      <path
         d="m 121.10815,260.663 24.0298,-12.8912 18.47178,-7.8076 -24.02978,12.8912 -18.4718,7.8076"
         id="path2983-3"
         style="fill:#de00e8;fill-opacity:1;stroke:none;stroke-width:0.529167;stroke-opacity:0.6" />
      <path
         d="m 139.57995,252.8554 24.02978,-12.8912 -40.50608,-63.8922 -24.029801,12.8911 40.506101,63.8923"
         id="path2985-9"
         style="fill:#de00e8;fill-opacity:1;stroke:none;stroke-width:0.529167;stroke-opacity:0.6" />
      <path
         d="m 99.073849,188.9631 24.029801,-12.8911 -18.4722,7.8067 -24.029801,12.89121 18.4722,-7.80681"
         id="path2987-9"
         style="fill:#de00e8;fill-opacity:1;stroke:none;stroke-width:0.529167;stroke-opacity:0.6" />
      <path
         d="m 80.601649,196.76991 24.029801,-12.89121 -26.177301,-25.9561 -24.0296,12.8911 26.1771,25.95621"
         id="path2989-3"
         style="fill:#cc00d5;fill-opacity:1;stroke:none;stroke-width:0.529167;stroke-opacity:0.6" />
      <path
         d="m 54.424549,170.8137 24.0296,-12.8911 v -26.1235 l -24.0296,12.8912 v 26.1234"
         id="path2991-4"
         style="fill:#de00e8;fill-opacity:1;stroke:none;stroke-width:0.529167;stroke-opacity:0.6" />
      <path
         d="m 54.424549,144.6903 24.0296,-12.8912 -57.2836,-33.0726 -24.03,12.8909 57.284,33.0729"
         id="path2993-50"
         style="fill:#de00e8;fill-opacity:1;stroke:none;stroke-width:0.529167;stroke-opacity:0.6" />
      <path
         d="m -2.859451,111.6174 24.03,-12.8909 v 0 l -24.03,12.8909 v 0"
         id="path2995-1"
         style="fill:#de00e8;fill-opacity:1;stroke:none;stroke-width:0.529167;stroke-opacity:0.6" />
      <path
         d="m -1.742451,178.1016 24.03,-12.8912 55.0504,31.78364 -24.0294,12.89117 -55.051,-31.78361"
         id="path2997-1"
         style="fill:#de00e8;fill-opacity:1;stroke:none;stroke-width:0.529167;stroke-opacity:0.6" />
      <path
         d="m 53.308549,209.88521 24.0294,-12.89117 38.926901,61.40126 -24.029801,12.8911 -38.9265,-61.40119"
         id="path2999-2"
         style="fill:#de00e8;fill-opacity:1;stroke:none;stroke-width:0.529167;stroke-opacity:0.6" />
      <path
         d="m 92.235049,271.2864 24.029801,-12.8911 v 55.0512 l -24.029801,12.891 v -55.0511"
         id="path3001-0"
         style="fill:#de00e8;fill-opacity:1;stroke:none;stroke-width:0.529167;stroke-opacity:0.6" />
      <path
         d="m 92.235049,326.3375 24.029801,-12.891 -38.926901,16.452 -24.0294,12.891 38.9265,-16.452"
         id="path3003-6"
         style="fill:#b800c0;fill-opacity:1;stroke:none;stroke-width:0.529167;stroke-opacity:0.6" />
      <path
         d="m 53.308549,342.7895 24.0294,-12.891 -55.0504,-31.7836 -24.03,12.8916 55.051,31.783"
         id="path3005-78"
         style="fill:#b800c0;fill-opacity:1;stroke:none;stroke-width:0.529167;stroke-opacity:0.6" />
      <path
         d="m -1.742451,311.0065 24.03,-12.8916 -38.927,-61.4012 -24.03,12.8912 38.927,61.4016"
         id="path3007-4"
         style="fill:#b800c0;fill-opacity:1;stroke:none;stroke-width:0.529167;stroke-opacity:0.6" />
      <path
         d="m -40.669451,249.6049 24.03,-12.8912 v -55.0509 l -24.03,12.89117 v 55.05093"
         id="path3009-2"
         style="fill:#b800c0;fill-opacity:1;stroke:none;stroke-width:0.529167;stroke-opacity:0.6" />
      <path
         d="m -40.669451,194.55397 24.03,-12.89117 38.927,-16.4524 -24.03,12.8912 -38.927,16.45237"
         id="path3011-5"
         style="fill:#de00e8;fill-opacity:1;stroke:none;stroke-width:0.529167;stroke-opacity:0.6" />
      <path
         d="m -1.742451,178.1016 24.03,-12.8912 v 0 l -24.03,12.8912 v 0"
         id="path3013-6"
         style="fill:#de00e8;fill-opacity:1;stroke:none;stroke-width:0.529167;stroke-opacity:0.6" />
      <path
         id="path2781-6-1"
         style="opacity:0.998;fill:#6834d0;fill-opacity:1;stroke:none;stroke-width:14.2815;stroke-linecap:round;stroke-linejoin:round"
         d="m -2.859431,111.61743 v 26.12347 l -26.177738,-4.27097 -18.471732,-29.1364 -40.50554,17.12016 18.47173,29.1364 -10.84326,19.91687 -26.122949,-15.0821 v 57.28435 l 26.122949,15.0821 10.84326,32.43757 -18.47173,7.8071 40.50604,63.8922 18.47175,-7.80706 26.17722,25.95616 v 26.12348 l 57.28383,33.07284 v -26.12348 l 26.17773,4.27099 18.47174,29.13639 40.506051,-17.11936 -18.47225,-29.13722 10.84326,-19.91685 26.12347,15.08239 v -57.28435 l -26.12347,-15.08238 -10.84275,-32.43677 18.47174,-7.8076 -40.506051,-63.89223 -18.47226,7.80678 -26.17721,-25.95617 v -26.12347 z m 1.11672,66.48413 55.0509,31.78365 38.92682,61.40124 v 55.0509 l -38.92682,16.4524 -55.0509,-31.78365 -38.92682,-61.40122 v -55.05091 z" />
    </g>
  </g>
</svg>
